<svg xmlns="http://www.w3.org/2000/svg" width="60" height="50" viewBox="0 0 60 50">
  <defs>
    <style>
      .cls-1 {
        fill: #50b189;
      }

      .cls-2 {
        fill: none;
        stroke: #000;
        stroke-miterlimit: 10;
        stroke-width: 2.79px;
      }
    </style>
  </defs>
  <title>SCI1031_Icones</title>
  <g id="Fonction">
    <g>
      <rect class="cls-1" x="5.79" y="0.09" width="54.11" height="44.03" rx="3.35"/>
      <rect class="cls-2" x="1.43" y="4.13" width="54.07" height="44.4" rx="3.46"/>
      <g>
        <path d="M46.25,24.56l-5.76-5.9a1.65,1.65,0,0,1-.08-2.36,1.59,1.59,0,0,1,2.37,0C45,18.63,47.27,21,49.54,23.24a1.81,1.81,0,0,1,0,2.56c-2.23,2.42-4.42,4.88-6.62,7.33a1.7,1.7,0,0,1-1.92.62,1.66,1.66,0,0,1-.66-2.67Z"/>
        <path d="M13.39,25.12c.11.08,4,4,5.81,5.86a1.65,1.65,0,0,1,.38,1.88,1.49,1.49,0,0,1-1.65,1,2,2,0,0,1-1-.53c-2.29-2.3-4.55-4.63-6.81-7a1.72,1.72,0,0,1,0-2.49c1.36-1.48,5.89-6.54,6.83-7.54a1.58,1.58,0,0,1,2.57.3,1.68,1.68,0,0,1-.21,2C17.5,20.54,13.61,24.87,13.39,25.12Z"/>
      </g>
      <path d="M25.6,34.59l.13.06a1.54,1.54,0,0,0,2-.78L35.06,17.4a1.52,1.52,0,0,0-.78-2l-.13-.06a1.54,1.54,0,0,0-2,.78L24.82,32.57A1.54,1.54,0,0,0,25.6,34.59Z"/>
    </g>
  </g>
</svg>
