<svg xmlns="http://www.w3.org/2000/svg" width="60" height="50" viewBox="0 0 60 50">
  <defs>
    <style>
      .cls-1 {
        fill: #6cafbe;
      }

      .cls-2 {
        fill: none;
        stroke: #000;
        stroke-miterlimit: 10;
        stroke-width: 2.79px;
      }
    </style>
  </defs>
  <title>SCI1031_Icones</title>
  <g id="Données">
    <g>
      <rect class="cls-1" x="5.85" y="0.07" width="54.02" height="44.1" rx="3.34"/>
      <rect class="cls-2" x="1.45" y="4.25" width="54.08" height="44.28" rx="3.45"/>
      <g>
        <path d="M29.44,26.13a8.15,8.15,0,0,1-2.67-.73L15.6,21A2.34,2.34,0,0,1,14,18.76a2.32,2.32,0,0,1,1.55-2.21l11.92-4.74a4.89,4.89,0,0,1,3.72,0q6,2.37,12,4.77a2.24,2.24,0,0,1,1.51,2.15A2.28,2.28,0,0,1,43.23,21Q37.13,23.39,31,25.78A10.21,10.21,0,0,1,29.44,26.13Z"/>
        <path d="M29.38,38a14.32,14.32,0,0,1-1.92-.5c-4-1.54-7.92-3.12-11.88-4.69a1.3,1.3,0,0,1-.47-2.24,1.32,1.32,0,0,1,1.4-.19l5.77,2.3,6.21,2.46a2.51,2.51,0,0,0,1.92,0l11.94-4.73a1.33,1.33,0,0,1,1.77.65,1.27,1.27,0,0,1-.74,1.72c-1.72.71-3.46,1.39-5.19,2.07-2.38.94-4.76,1.89-7.15,2.81A13.18,13.18,0,0,1,29.38,38Z"/>
        <path d="M29.35,32.11c-.73-.21-1.49-.36-2.2-.64q-5.74-2.23-11.46-4.54a1.94,1.94,0,0,1-.75-.5,1.25,1.25,0,0,1-.06-1.54,1.28,1.28,0,0,1,1.48-.46c1.88.72,3.74,1.47,5.62,2.21l6.5,2.58a2.51,2.51,0,0,0,1.92,0l10.71-4.25c.43-.17.86-.35,1.3-.5a1.28,1.28,0,0,1,1.71.69,1.26,1.26,0,0,1-.72,1.69c-1.9.78-3.81,1.53-5.72,2.28-2.12.84-4.24,1.7-6.37,2.51A17,17,0,0,1,29.35,32.11Z"/>
        <path class="cls-1" d="M41.74,18.76l-2.41.95c-3,1.18-5.93,2.34-8.88,3.53a2.79,2.79,0,0,1-2.16,0Q22.83,21,17.36,18.87l-.25-.12,1.44-.6c3.23-1.28,6.47-2.55,9.69-3.84a2.89,2.89,0,0,1,2.29,0c3.61,1.45,7.23,2.87,10.84,4.31Z"/>
      </g>
    </g>
  </g>
</svg>
