<svg id="Remarque_importante" data-name="Remarque importante" xmlns="http://www.w3.org/2000/svg" width="60" height="50" viewBox="0 0 60 50">
  <defs>
    <style>
      .cls-1 {
        fill: #e89a3f;
      }

      .cls-2 {
        fill: none;
        stroke: #000;
        stroke-miterlimit: 10;
        stroke-width: 2.79px;
      }
    </style>
  </defs>
  <title>SCI1031_Icones</title>
  <g>
    <path class="cls-1" d="M8.22.08H56.55a3.34,3.34,0,0,1,3.34,3.34V40.84a3.34,3.34,0,0,1-3.34,3.34H9.33A3.34,3.34,0,0,1,6,40.84V2.31A2.23,2.23,0,0,1,8.22.08Z"/>
    <rect class="cls-2" x="1.51" y="4.22" width="53.99" height="44.31" rx="3.45"/>
    <g>
      <path d="M27.85,17.55c-.09-1.61-.17-3.22-.25-4.83a2,2,0,0,1,2.29-2.27c.76,0,2.19,0,2.27,1.75l-.57,10.46c-.14,2.68-.27,5.36-.41,8,0,.86-.4,1.37-1,1.5-.9.18-1.57-.43-1.63-1.46-.1-2-.19-4-.3-6.06-.12-2.38-.25-4.76-.37-7.13Z"/>
      <path d="M32.17,36.93a2.37,2.37,0,0,1-2.31,2.29,2.34,2.34,0,0,1-2.3-2.29,2.29,2.29,0,0,1,2.32-2.31A2.33,2.33,0,0,1,32.17,36.93Z"/>
    </g>
  </g>
</svg>
